<svg xmlns="http://www.w3.org/2000/svg" viewBox="0.005191017407923937 -0.0023212842643260956 118.12482452392578 100.01492309570312"><path d="M48.27 97.7L.65 15.22a4.46 4.46 0 0 1 .58-5.38 4.48 4.48 0 0 1 5.3-1.07l8.69 4 38.93 17.96a4.57 4.57 0 0 1 2.66 4.15v60.53a4.58 4.58 0 0 1-8.54 2.29z" fill="#00476e"></path><path d="M57.12 27.18L56 26.67 17.13 8.74a4.4 4.4 0 0 1-2.56-5.14A4.4 4.4 0 0 1 19 0h80a4.4 4.4 0 0 1 4.47 3.6 5.33 5.33 0 0 1 .12 1.08A4.33 4.33 0 0 1 101 8.74L62.07 26.67l-1.07.51a4.6 4.6 0 0 1-3.88 0z" fill="#c30d23"></path><path d="M64.67 99.83a4.42 4.42 0 0 1-3.39-4.42V34.88a4.57 4.57 0 0 1 2.66-4.15l39-18 8.66-4a4.48 4.48 0 0 1 5.3 1.07 4.62 4.62 0 0 1 1.23 3.08 4.56 4.56 0 0 1-.65 2.3L69.82 97.7a4.43 4.43 0 0 1-5.15 2.13z" fill="#00476e"></path></svg>